<svg id="visual" viewBox="0 0 900 600" width="900" height="600" xmlns="http://www.w3.org/2000/svg" xmlns:xlink="http://www.w3.org/1999/xlink" version="1.1"><rect x="0" y="0" width="900" height="600" fill="#ffffff"></rect><path d="M0 220L25 238.3C50 256.7 100 293.3 150 308C200 322.7 250 315.3 300 299C350 282.7 400 257.3 450 257.7C500 258 550 284 600 281C650 278 700 246 750 249.3C800 252.7 850 291.3 875 310.7L900 330L900 0L875 0C850 0 800 0 750 0C700 0 650 0 600 0C550 0 500 0 450 0C400 0 350 0 300 0C250 0 200 0 150 0C100 0 50 0 25 0L0 0Z" fill="#d4a67d"></path><path d="M0 230L25 223.3C50 216.7 100 203.3 150 200.5C200 197.7 250 205.3 300 210C350 214.7 400 216.3 450 222.3C500 228.3 550 238.7 600 229.7C650 220.7 700 192.3 750 179C800 165.7 850 167.3 875 168.2L900 169L900 0L875 0C850 0 800 0 750 0C700 0 650 0 600 0C550 0 500 0 450 0C400 0 350 0 300 0C250 0 200 0 150 0C100 0 50 0 25 0L0 0Z" fill="#bb885c"></path><path d="M0 153L25 152.8C50 152.7 100 152.3 150 149.5C200 146.7 250 141.3 300 133.7C350 126 400 116 450 117.3C500 118.7 550 131.3 600 142.2C650 153 700 162 750 168.7C800 175.3 850 179.7 875 181.8L900 184L900 0L875 0C850 0 800 0 750 0C700 0 650 0 600 0C550 0 500 0 450 0C400 0 350 0 300 0C250 0 200 0 150 0C100 0 50 0 25 0L0 0Z" fill="#a16a3c"></path><path d="M0 71L25 70.3C50 69.7 100 68.3 150 73.8C200 79.3 250 91.7 300 92.8C350 94 400 84 450 81.5C500 79 550 84 600 84.2C650 84.3 700 79.7 750 76C800 72.3 850 69.7 875 68.3L900 67L900 0L875 0C850 0 800 0 750 0C700 0 650 0 600 0C550 0 500 0 450 0C400 0 350 0 300 0C250 0 200 0 150 0C100 0 50 0 25 0L0 0Z" fill="#874e1e"></path></svg>